<?xml version="1.0" encoding="utf-8"?>
<!-- Generator: Adobe Illustrator 19.2.0, SVG Export Plug-In . SVG Version: 6.00 Build 0)  -->
<svg version="1.1" id="Layer_1" xmlns="http://www.w3.org/2000/svg" xmlns:xlink="http://www.w3.org/1999/xlink" x="0px" y="0px"
	 viewBox="0 0 96 96" style="enable-background:new 0 0 96 96;" xml:space="preserve">
<style type="text/css">
	.st0{fill:#FFFFFF;stroke:#000000;stroke-miterlimit:10;}
</style>
<circle cx="48" cy="48" r="48"/>
<g>
	<g>
		<rect x="22.8" y="35.6" class="st0" width="50.4" height="39"/>
		<polyline class="st0" points="11.2,39.7 48,15 84.8,39.7 		"/>
	</g>
	<g>
		<path d="M34.2,35.9c0.6-2.1,1.6-3.9,2.9-5.5c1.3-1.6,2.9-2.8,4.9-3.6c2-0.9,4.2-1.3,6.8-1.3c1.9,0,3.8,0.3,5.6,0.9
			c1.8,0.6,3.3,1.5,4.6,2.6c1.3,1.1,2.4,2.5,3.2,4.2c0.8,1.7,1.2,3.5,1.2,5.6c0,2.1-0.3,4-1,5.5c-0.7,1.5-1.6,2.9-2.7,4.1
			c-1.1,1.2-2.4,2.3-3.9,3.2c-1.4,1-2.9,1.9-4.3,2.9c-1.5,1-2.9,2-4.3,3.1c-1.4,1.1-2.6,2.4-3.6,3.8h20.1v7.4H32.4
			c0-2.5,0.4-4.6,1.1-6.4c0.7-1.8,1.7-3.5,2.9-4.9c1.2-1.4,2.6-2.8,4.3-4c1.6-1.2,3.4-2.4,5.2-3.7c0.9-0.6,1.9-1.3,3-2
			c1.1-0.7,2-1.4,2.9-2.2c0.9-0.8,1.6-1.7,2.2-2.7c0.6-1,0.9-2.2,0.9-3.5c0-2.1-0.6-3.7-1.8-4.8c-1.2-1.2-2.7-1.7-4.6-1.7
			c-1.3,0-2.3,0.3-3.2,0.9c-0.9,0.6-1.6,1.4-2.1,2.3c-0.5,1-0.9,2-1.1,3.2c-0.2,1.2-0.3,2.3-0.3,3.4h-8.3
			C33.3,40.3,33.6,38,34.2,35.9z"/>
	</g>
</g>
</svg>
